<svg height="512pt" viewBox="-26 0 512 512" width="512pt" xmlns="http://www.w3.org/2000/svg"><path d="m130 240.398438h28.5v28.5c0 5.523437 4.476562 10 10 10h40c5.519531 0 10-4.476563 10-10v-28.5h23v28.5c0 5.523437 4.476562 10 10 10h40c5.523438 0 10-4.476563 10-10v-28.5h28.5c5.523438 0 10-4.476563 10-10v-40c0-5.523438-4.476562-10-10-10h-28.5v-23h28.5c5.523438 0 10-4.476563 10-10v-40c0-5.523438-4.476562-10-10-10h-28.5v-28.5c0-5.523438-4.476562-10-10-10h-40c-5.523438 0-10 4.476562-10 10v28.5h-23v-28.5c0-5.523438-4.480469-10-10-10h-40c-5.523438 0-10 4.476562-10 10v28.5h-28.5c-5.523438 0-10 4.476562-10 10v40c0 5.523437 4.476562 10 10 10h28.5v23h-28.5c-5.523438 0-10 4.476562-10 10v40c0 5.523437 4.476562 10 10 10zm10-40h28.5c5.519531 0 10-4.476563 10-10v-43c0-5.523438-4.480469-10-10-10h-28.5v-20h28.5c5.519531 0 10-4.476563 10-10v-28.5h20v28.5c0 5.523437 4.476562 10 10 10h43c5.523438 0 10-4.476563 10-10v-28.5h20v28.5c0 5.523437 4.476562 10 10 10h28.5v20h-28.5c-5.523438 0-10 4.476562-10 10v43c0 5.523437 4.476562 10 10 10h28.5v20h-28.5c-5.523438 0-10 4.476562-10 10v28.5h-20v-28.5c0-5.523438-4.476562-10-10-10h-43c-5.523438 0-10 4.476562-10 10v28.5h-20v-28.5c0-5.523438-4.480469-10-10-10h-28.5zm0 0"/><path d="m208.5 200.398438h43c5.523438 0 10-4.476563 10-10v-43c0-5.523438-4.476562-10-10-10h-43c-5.523438 0-10 4.476562-10 10v43c0 5.523437 4.476562 10 10 10zm10-43h23v23h-23zm0 0"/><path d="m403.667969 300.808594c8.277343-14.292969 3.382812-32.65625-10.90625-40.929688-6.925781-4.011718-14.996094-5.085937-22.726563-3.023437-7.730468 2.058593-14.195312 7.003906-18.210937 13.941406-12.335938 21.367187-30.152344 39.183594-51.519531 51.519531-.246094.140625-.480469.292969-.710938.453125-21.09375 11.992188-45.140625 18.328125-69.59375 18.328125-24.707031 0-49.019531-6.492187-70.300781-18.78125-21.371094-12.335937-39.1875-30.152344-51.53125-51.535156-8.277344-14.289062-26.636719-19.183594-40.929688-10.90625-6.921875 4.011719-11.871093 10.476562-13.929687 18.207031-2.0625 7.730469-.988282 15.800781 3.023437 22.726563 17.566407 30.425781 42.9375 55.792968 73.363281 73.359375 30.515626 17.617187 65.199219 26.929687 100.304688 26.929687 34.769531 0 69.15625-9.164062 99.492188-26.511718.273437-.125.542968-.265626.808593-.417969 30.433594-17.570313 55.804688-42.941407 73.367188-73.359375zm-82.675781 55.640625c-.269532.125-.535157.261719-.792969.414062-27.476563 15.855469-58.664063 24.234375-90.199219 24.234375-31.597656 0-62.824219-8.382812-90.304688-24.25-27.394531-15.816406-50.234374-38.65625-66.050781-66.050781-.003906-.003906-.003906-.007813-.007812-.011719-1.332031-2.300781-1.6875-4.980468-1.003907-7.550781.683594-2.570313 2.328126-4.71875 4.628907-6.050781 1.566406-.90625 3.28125-1.339844 4.972656-1.339844 3.4375 0 6.78125 1.777344 8.621094 4.953125 14.089843 24.402344 34.4375 44.75 58.839843 58.839844 24.320313 14.039062 52.089844 21.460937 80.304688 21.460937 28.238281 0 56.011719-7.40625 80.316406-21.425781.261719-.152344.519532-.3125.765625-.488281 24.058594-14.070313 44.121094-34.246094 58.054688-58.375 1.332031-2.300782 3.480469-3.945313 6.046875-4.628906 2.566406-.683594 5.25-.328126 7.550781 1.003906 4.75 2.75 6.375 8.851562 3.617187 13.613281-15.679687 27.164063-38.273437 49.851563-65.359374 65.652344zm0 0"/><path d="m358.101562 0h-176.207031c-5.523437 0-10 4.476562-10 10s4.476563 10 10 10h176.207031c45.15625 0 81.894532 36.738281 81.894532 81.894531v256.207031c0 45.15625-36.738282 81.898438-81.894532 81.898438-5.523437 0-10 4.476562-10 10 0 5.519531 4.476563 10 10 10 56.1875 0 101.894532-45.710938 101.894532-101.898438v-256.207031c.003906-56.183593-45.707032-101.894531-101.894532-101.894531zm0 0"/><path d="m278.101562 440h-18.078124c-3.574219 0-6.875 1.902344-8.660157 5l-21.363281 37-21.363281-37c-1.785157-3.097656-5.085938-5-8.660157-5h-98.082031c-45.15625 0-81.894531-36.738281-81.894531-81.898438v-256.207031c0-45.15625 36.738281-81.894531 81.894531-81.894531 5.523438 0 10-4.476562 10-10s-4.476562-10-10-10c-56.183593 0-101.894531 45.710938-101.894531 101.894531v256.207031c0 56.1875 45.710938 101.898438 101.894531 101.898438h92.308594l27.136719 47c1.785156 3.09375 5.085937 5 8.660156 5 3.570312 0 6.875-1.90625 8.660156-5l27.136719-47h12.304687c5.523438 0 10-4.480469 10-10 0-5.523438-4.476562-10-10-10zm0 0"/><path d="m141.898438 20c5.523437 0 10-4.476562 10-10s-4.476563-10-10-10h-.007813c-5.523437 0-9.996094 4.476562-9.996094 10s4.480469 10 10.003907 10zm0 0"/><path d="m318.105469 440h-.007813c-5.523437 0-9.996094 4.476562-9.996094 10 0 5.519531 4.480469 10 10.003907 10 5.523437 0 10-4.480469 10-10 0-5.523438-4.476563-10-10-10zm0 0"/></svg>